# Blender v2.80 (sub 75) OBJ File: 'Объекты.blend'
# www.blender.org
mtllib Object4.mtl
o Скала.001_Plane.004
v 7.029020 0.000000 -3.432344
v 6.837684 0.000000 -3.113691
v 7.181067 0.000000 -3.110420
v 6.871545 -0.012172 -2.882711
v 7.168823 0.000000 -2.517271
v 6.891518 0.000000 -2.796030
v 7.170349 0.000000 -2.436120
v 6.899149 0.000000 -2.437646
v 7.544696 0.010789 -2.611101
v 7.456081 0.000000 -2.436120
v 7.613760 -0.022965 -2.824442
v 7.554989 0.000000 -2.436120
v 8.003108 0.000000 -2.654218
v 8.014725 0.000000 -2.436120
v 8.494278 0.000000 -2.586380
v 8.450650 0.000000 -2.436120
v 8.593059 0.000000 -2.591299
v 8.549558 0.000000 -2.436120
v 8.962329 0.000000 -2.655278
v 8.992809 0.000000 -2.436120
v 9.039214 0.059020 -2.605828
v 9.078896 0.000000 -2.436120
v 9.509001 0.000000 -2.617781
v 9.707140 0.000000 -2.442963
v 7.263967 -0.019482 -2.764711
v 7.580295 0.000382 -2.822838
v 7.331716 -0.019790 -2.932602
v 7.489097 0.000000 -2.958671
v 7.716976 0.000000 -2.966515
v 7.815824 0.000000 -2.963530
v 8.109147 0.000000 -2.772383
v 8.518233 0.000000 -2.730536
v 8.298045 0.000000 -2.625917
v 8.232688 0.000000 -2.436120
v 8.233811 0.000000 -2.488652
v 8.046556 0.000000 -2.993704
v 8.555630 0.000000 -2.955672
v 8.285834 0.000000 -3.250194
v 8.769657 0.000000 -2.517271
v 8.771183 0.000000 -2.436120
v 8.606032 0.000000 -2.822286
v 8.989993 0.000000 -2.792605
v 8.747636 0.000000 -3.032211
v 9.266740 0.000000 -2.517271
v 9.268267 0.000000 -2.436120
v 9.416270 0.000000 -2.436120
v 9.414743 0.000000 -2.517271
v 5.208298 0.000000 -2.737438
v 5.224709 0.000000 -2.587737
v 9.467403 0.000000 -2.730960
v 9.516499 0.000000 -2.650216
v 9.277784 0.000000 -2.768398
v 9.457766 0.000000 -3.193343
v 9.297289 0.000000 -2.908525
v 9.561964 0.000000 -2.995579
v 9.100175 0.000000 -2.801574
v 6.561282 0.000000 -2.437646
v 6.559755 0.000000 -2.520069
v 6.810367 0.000000 -2.927740
v 6.611142 0.000000 -2.767592
v 6.381357 0.000000 -2.520069
v 6.382884 0.000000 -2.437646
v 6.133015 0.000000 -2.796338
v 6.184911 0.000000 -2.437646
v 6.648283 0.000000 -2.942868
v 6.370673 0.000000 -3.192076
v 6.182839 0.000000 -2.915952
v 5.782250 -0.051738 -2.814810
v 5.847175 0.000000 -2.437646
v 5.409217 0.000000 -2.725109
v 5.504359 0.000000 -2.437646
v 5.744330 0.000000 -2.437646
v 5.745856 0.000000 -2.648283
v 6.003090 -0.049967 -3.021191
v 5.826166 -0.030090 -3.016530
v 5.430628 0.000000 -3.091595
v 5.764174 0.000000 -3.000372
v 5.626634 0.000000 -2.584939
v 5.624344 0.000000 -2.437646
v 5.564562 0.000000 -3.161390
v 7.007651 0.201489 -3.225273
v 6.860579 0.201489 -2.924141
v 7.162751 0.201489 -2.969070
v 6.862813 0.201489 -2.752409
v 7.168823 0.201489 -2.517271
v 6.897623 0.201489 -2.520069
v 7.170349 0.201489 -2.436120
v 6.899149 0.201489 -2.437646
v 7.456675 0.201489 -2.488652
v 7.456081 0.201489 -2.436120
v 7.554523 0.201489 -2.490772
v 7.554989 0.201489 -2.436120
v 8.015319 0.201489 -2.493952
v 8.014725 0.201489 -2.436120
v 8.452304 0.201489 -2.483352
v 8.450650 0.201489 -2.436120
v 8.551084 0.201489 -2.488270
v 8.549558 0.201489 -2.436120
v 8.934770 0.201489 -2.486744
v 8.992809 0.201489 -2.436120
v 9.075843 0.201489 -2.488270
v 9.078896 0.201489 -2.436120
v 9.487652 0.201483 -2.531924
v 9.564274 0.201489 -2.439783
v 7.317463 0.201489 -2.709692
v 7.543605 0.201489 -2.723472
v 7.373175 0.201489 -2.779794
v 7.490752 0.201489 -2.826849
v 7.735292 0.201489 -2.758932
v 7.795981 0.201489 -2.754420
v 8.046700 0.201489 -2.624327
v 8.476259 0.201489 -2.627507
v 8.298045 0.201489 -2.625917
v 8.232688 0.201489 -2.436120
v 8.233811 0.201489 -2.488652
v 8.049619 0.201489 -2.769331
v 8.506786 0.201489 -2.784721
v 8.301098 0.201483 -2.928134
v 8.769657 0.201489 -2.517271
v 8.771183 0.201489 -2.436120
v 8.583138 0.201483 -2.691275
v 8.966784 0.201489 -2.653749
v 8.728557 0.201489 -2.887208
v 9.266740 0.201489 -2.517271
v 9.268267 0.201489 -2.436120
v 9.416270 0.201489 -2.436120
v 9.414743 0.201489 -2.517271
v 5.213964 0.201489 -2.592146
v 5.229796 0.201489 -2.437646
v 9.425865 0.201489 -2.718895
v 9.530287 0.201489 -2.650216
v 9.329722 0.201489 -2.684257
v 9.442502 0.201489 -2.986014
v 9.351983 0.201489 -2.766066
v 9.550516 0.201489 -2.809873
v 9.129854 0.201483 -2.732677
v 6.561282 0.201489 -2.437646
v 6.559755 0.201489 -2.520069
v 6.784419 0.201489 -2.749022
v 6.580616 0.201483 -2.599694
v 6.381357 0.201489 -2.520069
v 6.382884 0.201489 -2.437646
v 6.192543 0.201489 -2.590281
v 6.184911 0.201489 -2.437646
v 6.614704 0.201489 -2.797865
v 6.379831 0.201489 -3.074548
v 6.216419 0.201489 -2.775527
v 5.848701 0.201489 -2.648283
v 5.847175 0.201489 -2.437646
v 5.505886 0.201489 -2.475805
v 5.504359 0.201489 -2.437646
v 5.744330 0.201489 -2.437646
v 5.745856 0.201489 -2.648283
v 6.025441 0.201489 -2.884289
v 5.878975 0.201489 -2.902758
v 5.377970 0.201489 -2.872322
v 5.742550 0.201489 -2.817210
v 5.626634 0.201489 -2.584939
v 5.624344 0.201489 -2.437646
v 5.574738 0.201489 -2.952789
v 5.265668 0.000000 -2.895872
v 5.364534 0.000000 -2.512692
v 5.316836 0.201489 -2.698574
v 5.367078 0.201489 -2.437646
vt 0.466597 0.637958
vt 0.487997 0.545169
vt 0.408021 0.477486
vt 0.415595 0.560166
vt 0.453273 0.335765
vt 0.397438 0.435548
vt 0.453580 0.312596
vt 0.398975 0.313143
vt 0.536034 0.401927
vt 0.511112 0.312596
vt 0.540892 0.442802
vt 0.531027 0.312596
vt 0.618959 0.383619
vt 0.623595 0.312596
vt 0.667707 0.325521
vt 0.717199 0.359337
vt 0.711411 0.313371
vt 0.667525 0.313371
vt 0.740041 0.362264
vt 0.731326 0.313371
vt 0.772974 0.335765
vt 0.821793 0.385165
vt 0.820575 0.313371
vt 0.775950 0.313371
vt 0.836182 0.383435
vt 0.837908 0.313371
vt 0.905487 0.335765
vt 0.917897 0.370577
vt 0.948983 0.314654
vt 0.905838 0.313371
vt 0.472430 0.424337
vt 0.540817 0.442227
vt 0.486071 0.484435
vt 0.525866 0.518260
vt 0.546563 0.461675
vt 0.599959 0.459798
vt 0.677360 0.370573
vt 0.718413 0.405688
vt 0.642606 0.427084
vt 0.674901 0.594034
vt 0.728896 0.487443
vt 0.605112 0.506306
vt 0.781733 0.462521
vt 0.823766 0.421529
vt 0.742653 0.444947
vt 0.875686 0.335765
vt 0.876037 0.313371
vt 0.084412 0.337066
vt 0.050689 0.360989
vt 0.068728 0.441410
vt 0.083853 0.425786
vt 0.866458 0.425657
vt 0.916090 0.412256
vt 0.923476 0.381020
vt 0.861148 0.467650
vt 0.927469 0.554795
vt 0.943856 0.491004
vt 0.836152 0.383162
vt 0.330945 0.313143
vt 0.330638 0.336767
vt 0.336024 0.420959
vt 0.381098 0.475695
vt 0.295025 0.313143
vt 0.294718 0.336767
vt 0.255163 0.313143
vt 0.239204 0.383017
vt 0.240740 0.433829
vt 0.292566 0.452049
vt 0.343502 0.483700
vt 0.187161 0.313143
vt 0.176171 0.441345
vt 0.142294 0.313143
vt 0.118135 0.313143
vt 0.098978 0.410161
vt 0.142755 0.359987
vt 0.166453 0.313143
vt 0.166760 0.382661
vt 0.191467 0.529484
vt 0.218554 0.591307
vt 0.129736 0.554293
vt 0.176381 0.517946
vt 0.096213 0.493404
vt 0.463278 0.566169
vt 0.420205 0.492316
vt 0.408809 0.437844
vt 0.485293 0.496905
vt 0.398667 0.336767
vt 0.453273 0.335765
vt 0.398975 0.313143
vt 0.453580 0.312596
vt 0.511112 0.312596
vt 0.511232 0.325521
vt 0.531027 0.312596
vt 0.530933 0.326280
vt 0.623595 0.312596
vt 0.623714 0.327418
vt 0.667707 0.325521
vt 0.667525 0.313371
vt 0.711411 0.313371
vt 0.711700 0.323624
vt 0.731326 0.313371
vt 0.731590 0.325384
vt 0.775599 0.335765
vt 0.775950 0.313371
vt 0.820575 0.313371
vt 0.820838 0.324838
vt 0.837908 0.313371
vt 0.837249 0.325384
vt 0.905487 0.335765
vt 0.905838 0.313371
vt 0.935638 0.314682
vt 0.920167 0.341010
vt 0.535398 0.409576
vt 0.483202 0.404643
vt 0.524420 0.453260
vt 0.494419 0.429736
vt 0.598260 0.386113
vt 0.552219 0.390286
vt 0.713571 0.374058
vt 0.680641 0.374656
vt 0.644757 0.374086
vt 0.719061 0.426250
vt 0.681255 0.482835
vt 0.630621 0.425991
vt 0.818088 0.371825
vt 0.780517 0.410617
vt 0.738044 0.398051
vt 0.876037 0.313371
vt 0.875686 0.335765
vt 0.084924 0.313143
vt 0.104619 0.348407
vt 0.088192 0.373114
vt 0.051714 0.313143
vt 0.916090 0.412256
vt 0.876915 0.393406
vt 0.923476 0.381020
vt 0.926692 0.488747
vt 0.874457 0.424822
vt 0.941550 0.424530
vt 0.842128 0.358500
vt 0.330638 0.336767
vt 0.330945 0.313143
vt 0.375874 0.418721
vt 0.329877 0.360859
vt 0.294718 0.336767
vt 0.295025 0.313143
vt 0.256700 0.361900
vt 0.255163 0.313143
vt 0.295521 0.451481
vt 0.246269 0.425528
vt 0.336741 0.431795
vt 0.187468 0.382661
vt 0.187161 0.313143
vt 0.142294 0.313143
vt 0.142755 0.359987
vt 0.121047 0.323700
vt 0.118135 0.313143
vt 0.166760 0.382661
vt 0.166453 0.313143
vt 0.222108 0.481279
vt 0.203142 0.504500
vt 0.177756 0.453309
vt 0.132306 0.491661
vt 0.094668 0.438983
vn 0.0002 -0.9998 -0.0221
vn 0.0192 -0.9997 0.0177
vn 0.0000 -1.0000 0.0000
vn 0.0108 -0.9992 -0.0384
vn -0.2512 -0.9669 -0.0448
vn 0.0191 -0.9990 0.0393
vn 0.3879 -0.8983 -0.2063
vn 0.0621 -0.9947 0.0824
vn 0.0827 -0.9966 -0.0041
vn 0.0694 -0.9956 -0.0636
vn -0.0923 -0.9725 -0.2137
vn -0.1732 -0.9796 0.1015
vn 0.0732 -0.9956 0.0584
vn -0.2282 -0.9674 0.1098
vn 0.0588 -0.9968 0.0543
vn 0.0000 1.0000 0.0000
vn 0.7922 0.4419 -0.4209
vn -0.7928 0.4290 -0.4329
vn -0.9955 -0.0340 0.0882
vn 0.9990 0.0433 0.0059
vn -0.9691 -0.1755 0.1731
vn -0.0056 0.0000 1.0000
vn 0.0000 0.0000 1.0000
vn -0.6878 0.4124 -0.5974
vn -0.0445 0.4475 -0.8932
vn -0.0041 0.6395 -0.7688
vn 0.6373 0.4046 -0.6559
vn 0.0239 0.0006 0.9997
vn -0.8584 0.1717 -0.4834
vn 0.9533 0.1574 0.2579
vn -0.2505 0.5581 -0.7910
vn -0.8219 0.3771 -0.4269
vn 0.8029 0.3478 -0.4841
vn 0.0326 0.7185 -0.6947
vn -0.7144 0.5226 -0.4653
vn 0.7139 0.4805 -0.5094
vn -0.8467 0.2526 -0.4682
vn 0.9792 0.1208 0.1627
vn -0.4423 0.7288 -0.5227
vn 0.4896 0.6912 -0.5316
vn 0.9794 0.1024 0.1740
vn -0.9469 -0.2821 0.1542
vn -0.7798 0.2965 -0.5514
vn 0.6080 0.4989 -0.6176
vn 0.9810 -0.0231 0.1924
vn -0.9897 -0.0997 -0.1027
vn -0.9932 -0.0507 0.1053
vn 0.7003 0.3990 -0.5919
vn 0.9477 -0.0494 0.3152
vn -0.9235 0.3421 -0.1738
vn 0.9895 -0.0651 0.1287
vn 0.7655 0.4745 -0.4345
vn -0.8091 0.4284 -0.4023
vn 0.2007 0.3120 -0.9286
vn -0.9032 0.3257 -0.2796
vn -0.5230 0.5125 -0.6810
vn -0.9763 0.0159 -0.2156
vn 0.7620 0.5008 -0.4106
vn 0.6411 0.4458 -0.6247
vn -0.7857 0.3905 -0.4798
vn -0.8940 0.3924 -0.2161
vn 0.9796 0.0094 0.2006
vn -0.2306 -0.4713 0.8513
vn -0.6667 0.3403 -0.6631
vn 0.0657 0.4515 -0.8898
vn -0.9403 0.3112 -0.1381
vn 0.8354 0.2277 -0.5002
vn -0.3040 0.6783 -0.6690
vn -0.9890 -0.0525 0.1381
vn 0.9988 0.0405 0.0288
vn 0.4966 0.6122 -0.6152
vn -0.2574 -0.1753 0.9503
vn -0.7463 0.4891 -0.4515
usemtl Скала_норм
s off
f 1/1/1 3/2/1 4/3/1 2/4/1
f 3/2/2 5/5/2 6/6/2 4/3/2
f 5/5/3 7/7/3 8/8/3 6/6/3
f 5/5/4 9/9/4 10/10/4 7/7/4
f 9/9/5 11/11/5 12/12/5 10/10/5
f 11/11/6 13/13/6 14/14/6 12/12/6
f 35/15/3 15/16/3 16/17/3 34/18/3
f 15/16/3 17/19/3 18/20/3 16/17/3
f 39/21/3 19/22/3 20/23/3 40/24/3
f 19/22/7 21/25/7 22/26/7 20/23/7
f 47/27/3 23/28/3 24/29/3 46/30/3
f 5/5/8 25/31/8 26/32/8 9/9/8
f 25/31/9 27/33/9 28/34/9 26/32/9
f 11/11/10 29/35/10 30/36/10 13/13/10
f 35/15/3 33/37/3 32/38/3 15/16/3
f 13/13/3 35/15/3 34/18/3 14/14/3
f 13/13/3 31/39/3 33/37/3 35/15/3
f 33/37/3 38/40/3 37/41/3 32/38/3
f 31/39/3 36/42/3 38/40/3 33/37/3
f 17/19/3 39/21/3 40/24/3 18/20/3
f 39/21/3 43/43/3 42/44/3 19/22/3
f 17/19/3 41/45/3 43/43/3 39/21/3
f 21/25/11 44/46/11 45/47/11 22/26/11
f 44/46/3 47/27/3 46/30/3 45/47/3
f 162/48/3 49/49/3 48/50/3 161/51/3
f 44/46/3 52/52/3 50/53/3 47/27/3
f 47/27/3 50/53/3 51/54/3 23/28/3
f 52/52/3 54/55/3 53/56/3 50/53/3
f 50/53/3 53/56/3 55/57/3 51/54/3
f 21/25/12 56/58/12 52/52/12 44/46/12
f 8/8/3 57/59/3 58/60/3 6/6/3
f 58/60/3 60/61/3 59/62/3 6/6/3
f 57/59/3 62/63/3 61/64/3 58/60/3
f 62/63/3 64/65/3 63/66/3 61/64/3
f 63/66/3 67/67/3 66/68/3 61/64/3
f 61/64/3 66/68/3 65/69/3 58/60/3
f 64/65/13 69/70/13 68/71/13 63/66/13
f 79/72/3 71/73/3 70/74/3 78/75/3
f 69/70/14 72/76/14 73/77/14 68/71/14
f 68/71/15 75/78/15 74/79/15 63/66/15
f 78/75/3 80/80/3 77/81/3 73/77/3
f 70/74/3 76/82/3 80/80/3 78/75/3
f 72/76/3 79/72/3 78/75/3 73/77/3
f 81/83/16 82/84/16 84/85/16 83/86/16
f 83/86/16 84/85/16 86/87/16 85/88/16
f 85/88/16 86/87/16 88/89/16 87/90/16
f 85/88/16 87/90/16 90/91/16 89/92/16
f 89/92/16 90/91/16 92/93/16 91/94/16
f 91/94/16 92/93/16 94/95/16 93/96/16
f 115/97/16 114/98/16 96/99/16 95/100/16
f 95/100/16 96/99/16 98/101/16 97/102/16
f 119/103/16 120/104/16 100/105/16 99/106/16
f 99/106/16 100/105/16 102/107/16 101/108/16
f 127/109/16 126/110/16 104/111/16 103/112/16
f 85/88/16 89/92/16 106/113/16 105/114/16
f 105/114/16 106/113/16 108/115/16 107/116/16
f 91/94/16 93/96/16 110/117/16 109/118/16
f 115/97/16 95/100/16 112/119/16 113/120/16
f 93/96/16 94/95/16 114/98/16 115/97/16
f 93/96/16 115/97/16 113/120/16 111/121/16
f 113/120/16 112/119/16 117/122/16 118/123/16
f 111/121/16 113/120/16 118/123/16 116/124/16
f 97/102/16 98/101/16 120/104/16 119/103/16
f 119/103/16 99/106/16 122/125/16 123/126/16
f 97/102/16 119/103/16 123/126/16 121/127/16
f 101/108/16 102/107/16 125/128/16 124/129/16
f 124/129/16 125/128/16 126/110/16 127/109/16
f 164/130/16 163/131/16 128/132/16 129/133/16
f 124/129/16 127/109/16 130/134/16 132/135/16
f 127/109/16 103/112/16 131/136/16 130/134/16
f 132/135/16 130/134/16 133/137/16 134/138/16
f 130/134/16 131/136/16 135/139/16 133/137/16
f 101/108/16 124/129/16 132/135/16 136/140/16
f 88/89/16 86/87/16 138/141/16 137/142/16
f 138/141/16 86/87/16 139/143/16 140/144/16
f 137/142/16 138/141/16 141/145/16 142/146/16
f 142/146/16 141/145/16 143/147/16 144/148/16
f 143/147/16 141/145/16 146/149/16 147/150/16
f 141/145/16 138/141/16 145/151/16 146/149/16
f 144/148/16 143/147/16 148/152/16 149/153/16
f 159/154/16 158/155/16 150/156/16 151/157/16
f 149/153/16 148/152/16 153/158/16 152/159/16
f 148/152/16 143/147/16 154/160/16 155/161/16
f 158/155/16 153/158/16 157/162/16 160/163/16
f 150/156/16 158/155/16 160/163/16 156/164/16
f 152/159/16 153/158/16 158/155/16 159/154/16
f 1/1/17 81/83/17 83/86/17 3/2/17
f 2/4/18 82/84/18 81/83/18 1/1/18
f 4/3/19 84/85/19 82/84/19 2/4/19
f 3/2/20 83/86/20 85/88/20 5/5/20
f 6/6/21 86/87/21 84/85/21 4/3/21
f 7/7/22 87/90/22 88/89/22 8/8/22
f 10/10/23 90/91/23 87/90/23 7/7/23
f 9/9/24 89/92/24 91/94/24 11/11/24
f 12/12/23 92/93/23 90/91/23 10/10/23
f 14/14/23 94/95/23 92/93/23 12/12/23
f 16/17/23 96/99/23 114/98/23 34/18/23
f 15/16/25 95/100/25 97/102/25 17/19/25
f 18/20/23 98/101/23 96/99/23 16/17/23
f 20/23/23 100/105/23 120/104/23 40/24/23
f 19/22/26 99/106/26 101/108/26 21/25/26
f 22/26/23 102/107/23 100/105/23 20/23/23
f 23/28/27 103/112/27 104/111/27 24/29/27
f 24/29/28 104/111/28 126/110/28 46/30/28
f 5/5/29 85/88/29 105/114/29 25/31/29
f 26/32/30 106/113/30 89/92/30 9/9/30
f 27/33/31 107/116/31 108/115/31 28/34/31
f 25/31/32 105/114/32 107/116/32 27/33/32
f 28/34/33 108/115/33 106/113/33 26/32/33
f 29/35/34 109/118/34 110/117/34 30/36/34
f 11/11/35 91/94/35 109/118/35 29/35/35
f 30/36/36 110/117/36 93/96/36 13/13/36
f 13/13/37 93/96/37 111/121/37 31/39/37
f 32/38/38 112/119/38 95/100/38 15/16/38
f 34/18/23 114/98/23 94/95/23 14/14/23
f 36/42/39 116/124/39 118/123/39 38/40/39
f 38/40/40 118/123/40 117/122/40 37/41/40
f 37/41/41 117/122/41 112/119/41 32/38/41
f 31/39/42 111/121/42 116/124/42 36/42/42
f 40/24/23 120/104/23 98/101/23 18/20/23
f 41/45/43 121/127/43 123/126/43 43/43/43
f 43/43/44 123/126/44 122/125/44 42/44/44
f 42/44/45 122/125/45 99/106/45 19/22/45
f 17/19/46 97/102/46 121/127/46 41/45/46
f 45/47/23 125/128/23 102/107/23 22/26/23
f 46/30/23 126/110/23 125/128/23 45/47/23
f 49/49/47 129/133/47 128/132/47 48/50/47
f 8/8/23 88/89/23 137/142/23 57/59/23
f 161/51/48 163/131/48 150/156/48 70/74/48
f 51/54/49 131/136/49 103/112/49 23/28/49
f 52/52/50 132/135/50 134/138/50 54/55/50
f 55/57/51 135/139/51 131/136/51 51/54/51
f 53/56/52 133/137/52 135/139/52 55/57/52
f 54/55/53 134/138/53 133/137/53 53/56/53
f 56/58/54 136/140/54 132/135/54 52/52/54
f 21/25/55 101/108/55 136/140/55 56/58/55
f 57/59/23 137/142/23 142/146/23 62/63/23
f 60/61/56 140/144/56 139/143/56 59/62/56
f 58/60/57 138/141/57 140/144/57 60/61/57
f 59/62/58 139/143/58 86/87/58 6/6/58
f 62/63/23 142/146/23 144/148/23 64/65/23
f 64/65/23 144/148/23 149/153/23 69/70/23
f 66/68/59 146/149/59 145/151/59 65/69/59
f 67/67/60 147/150/60 146/149/60 66/68/60
f 63/66/61 143/147/61 147/150/61 67/67/61
f 65/69/62 145/151/62 138/141/62 58/60/62
f 69/70/23 149/153/23 152/159/23 72/76/23
f 162/48/63 164/130/63 129/133/63 49/49/63
f 72/76/23 152/159/23 159/154/23 79/72/23
f 73/77/64 153/158/64 148/152/64 68/71/64
f 75/78/65 155/161/65 154/160/65 74/79/65
f 68/71/66 148/152/66 155/161/66 75/78/66
f 74/79/67 154/160/67 143/147/67 63/66/67
f 76/82/68 156/164/68 160/163/68 80/80/68
f 70/74/69 150/156/69 156/164/69 76/82/69
f 77/81/70 157/162/70 153/158/70 73/77/70
f 79/72/23 159/154/23 151/157/23 71/73/23
f 80/80/71 160/163/71 157/162/71 77/81/71
f 71/73/72 151/157/72 164/130/72 162/48/72
f 48/50/73 128/132/73 163/131/73 161/51/73
f 151/157/16 150/156/16 163/131/16 164/130/16
f 71/73/3 162/48/3 161/51/3 70/74/3
