# Blender v2.80 (sub 75) OBJ File: 'Объекты.blend'
# www.blender.org
mtllib Object3.mtl
o Скала.011_Plane.021
v 10.419366 0.020914 -4.182958
v 10.515951 0.020914 -3.917435
v 10.223154 0.020914 -4.025301
v 10.564703 -0.012172 -3.795883
v 10.382386 0.000000 -3.512644
v 10.659692 0.000000 -3.791403
v 10.380860 0.000000 -3.431493
v 10.652060 0.000000 -3.433019
v 9.971353 0.010789 -3.697478
v 10.095127 0.000000 -3.431493
v 9.937449 -0.022965 -3.702439
v 9.996220 0.000000 -3.431493
v 9.548101 0.000000 -3.649591
v 9.536484 0.000000 -3.431493
v 9.056931 0.000000 -3.581753
v 9.100559 0.000000 -3.431493
v 8.958151 0.000000 -3.586672
v 9.001652 0.000000 -3.431493
v 8.529314 0.000000 -3.650651
v 8.558400 0.000000 -3.431493
v 8.480666 0.000000 -3.645818
v 8.472314 0.000000 -3.431493
v 8.012908 0.000000 -3.613154
v 7.844069 0.000000 -3.438336
v 10.287242 -0.019482 -3.760084
v 9.937821 0.000382 -3.818210
v 10.219493 -0.019790 -3.893229
v 10.050001 0.000000 -3.944546
v 9.897169 0.035372 -3.797887
v 9.644766 0.035372 -3.759019
v 9.442062 0.000000 -3.767756
v 9.032975 0.000000 -3.725909
v 9.253164 0.000000 -3.621290
v 9.318521 0.000000 -3.431493
v 9.317398 0.000000 -3.484025
v 9.329851 0.000000 -3.883254
v 9.127121 0.000000 -3.951045
v 9.265375 0.000000 -4.075407
v 8.781551 0.000000 -3.512644
v 8.780025 0.000000 -3.431493
v 8.918372 0.000000 -3.817659
v 8.667349 0.000000 -3.666992
v 8.820356 0.000000 -3.861925
v 8.284469 0.000000 -3.512644
v 8.282943 0.000000 -3.431493
v 8.134939 0.000000 -3.431493
v 8.136465 0.000000 -3.512644
v 12.307751 0.000000 -3.742325
v 12.394753 0.000000 -3.583110
v 8.083806 0.000000 -3.726332
v 7.993346 0.000000 -3.645589
v 8.373390 0.000000 -3.802964
v 8.110679 0.000000 -3.858760
v 8.266215 0.000000 -3.930353
v 8.017319 0.000000 -3.949586
v 8.412316 0.000000 -3.652019
v 10.989927 0.000000 -3.433019
v 10.991454 0.000000 -3.515442
v 10.769434 0.000000 -3.919539
v 10.940066 0.000000 -3.762965
v 11.169851 0.000000 -3.515442
v 11.168325 0.000000 -3.433019
v 11.378484 0.000000 -3.737109
v 11.366298 0.000000 -3.433019
v 10.972543 0.000000 -3.773839
v 11.180536 0.000000 -3.869667
v 11.340945 0.000000 -3.795618
v 11.768959 -0.051738 -3.810183
v 11.704035 0.000000 -3.433019
v 12.141993 0.000000 -3.720481
v 12.046850 0.000000 -3.433019
v 11.806879 0.000000 -3.433019
v 11.805353 0.000000 -3.643655
v 11.548119 -0.049967 -4.063875
v 11.645308 -0.030090 -4.012028
v 12.104565 0.000000 -3.920730
v 11.771631 0.000000 -4.083952
v 11.924575 0.000000 -3.580312
v 11.926865 0.000000 -3.433019
v 11.986647 0.000000 -3.929460
v 10.436299 0.180575 -4.018873
v 10.529975 0.180575 -3.785105
v 10.237668 0.180575 -3.913294
v 10.534716 0.201489 -3.665580
v 10.382386 0.201489 -3.512644
v 10.653586 0.201489 -3.515442
v 10.380860 0.201489 -3.431493
v 10.652060 0.201489 -3.433019
v 10.094534 0.201489 -3.484025
v 10.095127 0.201489 -3.431493
v 9.996687 0.201489 -3.486145
v 9.996220 0.201489 -3.431493
v 9.535891 0.201489 -3.489325
v 9.536484 0.201489 -3.431493
v 9.098906 0.201489 -3.478725
v 9.100559 0.201489 -3.431493
v 9.000125 0.201489 -3.483643
v 9.001652 0.201489 -3.431493
v 8.556873 0.201489 -3.482117
v 8.558400 0.201489 -3.431493
v 8.475367 0.201489 -3.483643
v 8.472314 0.201489 -3.431493
v 8.063558 0.201483 -3.527297
v 7.986935 0.201489 -3.435156
v 10.233746 0.201489 -3.665355
v 9.974512 0.201489 -3.718845
v 10.178034 0.201489 -3.740421
v 10.066960 0.201489 -3.754812
v 9.885283 0.166117 -3.663186
v 9.657641 0.166117 -3.623328
v 9.431377 0.201489 -3.619700
v 9.074950 0.201489 -3.622880
v 9.253164 0.201489 -3.621290
v 9.318521 0.201489 -3.431493
v 9.317398 0.201489 -3.484025
v 9.327259 0.201489 -3.658881
v 9.061796 0.201489 -3.762721
v 9.250112 0.201483 -3.839122
v 8.781551 0.201489 -3.512644
v 8.780025 0.201489 -3.431493
v 8.941267 0.201483 -3.686647
v 8.695543 0.201489 -3.528137
v 8.839437 0.201489 -3.716922
v 8.284469 0.201489 -3.512644
v 8.282943 0.201489 -3.431493
v 8.134939 0.201489 -3.431493
v 8.136465 0.201489 -3.512644
v 12.247826 0.201489 -3.629918
v 12.389666 0.201489 -3.433019
v 8.139657 0.201489 -3.664603
v 7.993346 0.201489 -3.645589
v 8.370444 0.201489 -3.712867
v 8.125942 0.201489 -3.757253
v 8.259550 0.201489 -3.805531
v 8.028767 0.201489 -3.763881
v 8.409442 0.201483 -3.547382
v 10.989927 0.201489 -3.433019
v 10.991454 0.201489 -3.515442
v 10.795382 0.201489 -3.740820
v 10.970593 0.201483 -3.595067
v 11.169851 0.201489 -3.515442
v 11.168325 0.201489 -3.433019
v 11.358666 0.201489 -3.585654
v 11.366298 0.201489 -3.433019
v 10.996912 0.201489 -3.628836
v 11.171378 0.201489 -3.756427
v 11.316576 0.201489 -3.711037
v 11.702508 0.201489 -3.643655
v 11.704035 0.201489 -3.433019
v 12.045323 0.201489 -3.471178
v 12.046850 0.201489 -3.433019
v 11.806879 0.201489 -3.433019
v 11.805353 0.201489 -3.643655
v 11.491459 0.201489 -3.889089
v 11.585351 0.201489 -3.876812
v 12.109652 0.201489 -3.732480
v 11.793254 0.201489 -3.900790
v 11.924575 0.201489 -3.580312
v 11.926865 0.201489 -3.433019
v 11.976471 0.201489 -3.720859
v 9.742775 -0.011482 -3.734703
v 9.766352 0.000000 -3.431493
v 9.775371 0.035372 -3.853312
v 9.766289 0.201489 -3.487735
v 9.766352 0.201489 -3.431493
v 9.775866 0.166117 -3.718117
vt 0.466597 0.637958
vt 0.415595 0.560166
vt 0.408021 0.477486
vt 0.487997 0.545169
vt 0.397438 0.435548
vt 0.453273 0.335765
vt 0.398975 0.313143
vt 0.453580 0.312596
vt 0.511112 0.312596
vt 0.536034 0.401927
vt 0.531027 0.312596
vt 0.540892 0.442802
vt 0.579925 0.413211
vt 0.577311 0.312596
vt 0.623595 0.312596
vt 0.618959 0.383619
vt 0.667707 0.325521
vt 0.667525 0.313371
vt 0.711411 0.313371
vt 0.717199 0.359337
vt 0.731326 0.313371
vt 0.740041 0.362264
vt 0.772974 0.335765
vt 0.775950 0.313371
vt 0.820575 0.313371
vt 0.821793 0.385165
vt 0.837908 0.313371
vt 0.836182 0.383435
vt 0.905487 0.335765
vt 0.905838 0.313371
vt 0.948983 0.314654
vt 0.917897 0.370577
vt 0.540817 0.442227
vt 0.472430 0.424337
vt 0.525866 0.518260
vt 0.486071 0.484435
vt 0.599959 0.459798
vt 0.573261 0.460736
vt 0.718413 0.405688
vt 0.677360 0.370573
vt 0.642606 0.427084
vt 0.728896 0.487443
vt 0.674901 0.594034
vt 0.605112 0.506306
vt 0.823766 0.421529
vt 0.781733 0.462521
vt 0.742653 0.444947
vt 0.876037 0.313371
vt 0.875686 0.335765
vt 0.118135 0.313143
vt 0.098978 0.410161
vt 0.068728 0.441410
vt 0.050689 0.360989
vt 0.916090 0.412256
vt 0.866458 0.425657
vt 0.923476 0.381020
vt 0.927469 0.554795
vt 0.861148 0.467650
vt 0.943856 0.491004
vt 0.836152 0.383162
vt 0.330638 0.336767
vt 0.330945 0.313143
vt 0.381098 0.475695
vt 0.336024 0.420959
vt 0.294718 0.336767
vt 0.295025 0.313143
vt 0.239204 0.383017
vt 0.255163 0.313143
vt 0.292566 0.452049
vt 0.240740 0.433829
vt 0.343502 0.483700
vt 0.176171 0.441345
vt 0.187161 0.313143
vt 0.142294 0.313143
vt 0.142755 0.359987
vt 0.166760 0.382661
vt 0.166453 0.313143
vt 0.218554 0.591307
vt 0.191467 0.529484
vt 0.176381 0.517946
vt 0.129736 0.554293
vt 0.096213 0.493404
vt 0.463278 0.566169
vt 0.485293 0.496905
vt 0.408809 0.437844
vt 0.420205 0.492316
vt 0.453273 0.335765
vt 0.398667 0.336767
vt 0.453580 0.312596
vt 0.398975 0.313143
vt 0.511232 0.325521
vt 0.511112 0.312596
vt 0.530933 0.326280
vt 0.531027 0.312596
vt 0.577324 0.326849
vt 0.623714 0.327418
vt 0.623595 0.312596
vt 0.577311 0.312596
vt 0.667707 0.325521
vt 0.711700 0.323624
vt 0.711411 0.313371
vt 0.667525 0.313371
vt 0.731590 0.325384
vt 0.731326 0.313371
vt 0.775599 0.335765
vt 0.820838 0.324838
vt 0.820575 0.313371
vt 0.775950 0.313371
vt 0.837249 0.325384
vt 0.837908 0.313371
vt 0.905487 0.335765
vt 0.920167 0.341010
vt 0.935638 0.314682
vt 0.905838 0.313371
vt 0.483202 0.404643
vt 0.535398 0.409576
vt 0.494419 0.429736
vt 0.524420 0.453260
vt 0.575240 0.388199
vt 0.598260 0.386113
vt 0.680641 0.374656
vt 0.713571 0.374058
vt 0.644757 0.374086
vt 0.681255 0.482835
vt 0.719061 0.426250
vt 0.630621 0.425991
vt 0.780517 0.410617
vt 0.818088 0.371825
vt 0.738044 0.398051
vt 0.875686 0.335765
vt 0.876037 0.313371
vt 0.118135 0.313143
vt 0.051714 0.313143
vt 0.088192 0.373114
vt 0.121047 0.323700
vt 0.876915 0.393406
vt 0.916090 0.412256
vt 0.923476 0.381020
vt 0.874457 0.424822
vt 0.926692 0.488747
vt 0.941550 0.424530
vt 0.842128 0.358500
vt 0.330945 0.313143
vt 0.330638 0.336767
vt 0.329877 0.360859
vt 0.375874 0.418721
vt 0.295025 0.313143
vt 0.294718 0.336767
vt 0.255163 0.313143
vt 0.256700 0.361900
vt 0.245158 0.384026
vt 0.294410 0.409980
vt 0.336741 0.431795
vt 0.187161 0.313143
vt 0.187468 0.382661
vt 0.142294 0.313143
vt 0.142755 0.359987
vt 0.166453 0.313143
vt 0.166760 0.382661
vt 0.203142 0.504500
vt 0.222108 0.481279
vt 0.132306 0.491661
vt 0.177756 0.453309
vt 0.094668 0.438983
vt 0.546563 0.461675
vt 0.552219 0.390286
vn 0.0363 -0.9945 -0.0986
vn -0.0527 -0.9986 0.0090
vn 0.0000 -1.0000 0.0000
vn -0.0080 -0.9996 -0.0283
vn 0.2480 -0.9667 -0.0624
vn -0.0225 -0.9995 0.0225
vn -0.0739 -0.9916 0.1063
vn -0.0741 -0.9972 -0.0100
vn -0.2856 -0.8384 -0.4642
vn -0.0639 -0.9956 0.0684
vn 0.2282 -0.9674 0.1098
vn -0.0630 -0.9969 0.0479
vn 0.0295 0.9973 -0.0673
vn -0.0257 0.9993 -0.0256
vn 0.0000 1.0000 0.0000
vn -0.0561 0.9762 -0.2097
vn -0.4387 0.6121 -0.6580
vn 0.9087 0.2333 -0.3463
vn 0.9614 0.1846 -0.2040
vn -0.9471 -0.0597 0.3152
vn 0.4187 0.6535 -0.6306
vn 0.0056 0.0000 1.0000
vn 0.0000 0.0000 1.0000
vn -0.1552 0.7426 -0.6515
vn 0.0445 0.4475 -0.8932
vn -0.0196 0.6349 -0.7723
vn -0.6576 0.4494 -0.6047
vn -0.0239 0.0006 0.9997
vn 0.8282 0.2204 -0.5153
vn -0.9171 0.0594 0.3943
vn 0.2199 0.6218 -0.7517
vn 0.7781 0.4256 -0.4620
vn -0.5214 0.5425 -0.6587
vn -0.4597 0.6502 -0.6049
vn 0.8383 0.3225 -0.4395
vn -0.6393 0.5122 -0.5736
vn 0.6720 0.4737 -0.5693
vn -0.9792 0.1208 0.1627
vn 0.8531 0.4087 -0.3244
vn -0.4104 0.6213 -0.6675
vn -0.9714 0.0996 -0.2156
vn 0.4606 0.6106 -0.6442
vn 0.2990 0.5179 -0.8015
vn -0.7006 0.4640 -0.5421
vn -0.1738 0.6123 -0.7712
vn 0.9747 -0.0283 -0.2215
vn 0.7561 0.4385 -0.4859
vn -0.3717 0.5359 -0.7580
vn -0.8592 -0.0010 0.5117
vn 0.6612 0.3652 -0.6553
vn -0.9861 0.0919 -0.1387
vn 0.3897 0.5172 -0.7620
vn -0.3388 0.4662 -0.8172
vn 0.9629 0.1285 -0.2371
vn 0.3967 0.5123 -0.7617
vn 0.5754 0.4855 -0.6582
vn 0.9763 0.0159 -0.2156
vn -0.6693 0.5703 -0.4762
vn -0.4378 0.4968 -0.7494
vn 0.3272 0.4382 -0.8372
vn 0.8706 0.3163 -0.3770
vn -0.9982 0.0474 0.0361
vn 0.1997 -0.3398 0.9191
vn 0.6667 0.3403 -0.6631
vn 0.2096 0.5635 -0.7991
vn 0.7858 0.4613 -0.4120
vn -0.8839 0.1657 -0.4373
vn -0.0082 0.7016 -0.7125
vn 0.9852 0.1616 0.0574
vn -0.9976 0.0237 0.0655
vn 0.5204 0.5876 -0.6196
vn 0.3122 0.6888 -0.6542
vn 0.0296 0.9836 -0.1782
vn 0.0900 -0.8926 -0.4419
vn -0.0319 -0.9974 0.0644
usemtl Скала_норм.003
s off
f 1/1/1 2/2/1 4/3/1 3/4/1
f 3/4/2 4/3/2 6/5/2 5/6/2
f 5/6/3 6/5/3 8/7/3 7/8/3
f 5/6/4 7/8/4 10/9/4 9/10/4
f 9/10/5 10/9/5 12/11/5 11/12/5
f 161/13/6 162/14/6 14/15/6 13/16/6
f 35/17/3 34/18/3 16/19/3 15/20/3
f 15/20/3 16/19/3 18/21/3 17/22/3
f 39/23/3 40/24/3 20/25/3 19/26/3
f 19/26/3 20/25/3 22/27/3 21/28/3
f 47/29/3 46/30/3 24/31/3 23/32/3
f 5/6/7 9/10/7 26/33/7 25/34/7
f 25/34/8 26/33/8 28/35/8 27/36/8
f 161/13/9 13/16/9 30/37/9 163/38/9
f 35/17/3 15/20/3 32/39/3 33/40/3
f 13/16/3 14/15/3 34/18/3 35/17/3
f 13/16/3 35/17/3 33/40/3 31/41/3
f 33/40/3 32/39/3 37/42/3 38/43/3
f 31/41/3 33/40/3 38/43/3 36/44/3
f 17/22/3 18/21/3 40/24/3 39/23/3
f 39/23/3 19/26/3 42/45/3 43/46/3
f 17/22/3 39/23/3 43/46/3 41/47/3
f 21/28/3 22/27/3 45/48/3 44/49/3
f 44/49/3 45/48/3 46/30/3 47/29/3
f 71/50/3 70/51/3 48/52/3 49/53/3
f 44/49/3 47/29/3 50/54/3 52/55/3
f 47/29/3 23/32/3 51/56/3 50/54/3
f 52/55/3 50/54/3 53/57/3 54/58/3
f 50/54/3 51/56/3 55/59/3 53/57/3
f 21/28/3 44/49/3 52/55/3 56/60/3
f 8/7/3 6/5/3 58/61/3 57/62/3
f 58/61/3 6/5/3 59/63/3 60/64/3
f 57/62/3 58/61/3 61/65/3 62/66/3
f 62/66/3 61/65/3 63/67/3 64/68/3
f 63/67/3 61/65/3 66/69/3 67/70/3
f 61/65/3 58/61/3 65/71/3 66/69/3
f 64/68/10 63/67/10 68/72/10 69/73/10
f 79/74/3 78/75/3 70/51/3 71/50/3
f 69/73/11 68/72/11 73/76/11 72/77/11
f 68/72/12 63/67/12 74/78/12 75/79/12
f 78/75/3 73/76/3 77/80/3 80/81/3
f 70/51/3 78/75/3 80/81/3 76/82/3
f 72/77/3 73/76/3 78/75/3 79/74/3
f 81/83/13 83/84/13 84/85/13 82/86/13
f 83/84/14 85/87/14 86/88/14 84/85/14
f 85/87/15 87/89/15 88/90/15 86/88/15
f 85/87/15 89/91/15 90/92/15 87/89/15
f 89/91/15 91/93/15 92/94/15 90/92/15
f 164/95/15 93/96/15 94/97/15 165/98/15
f 115/99/15 95/100/15 96/101/15 114/102/15
f 95/100/15 97/103/15 98/104/15 96/101/15
f 119/105/15 99/106/15 100/107/15 120/108/15
f 99/106/15 101/109/15 102/110/15 100/107/15
f 127/111/15 103/112/15 104/113/15 126/114/15
f 85/87/15 105/115/15 106/116/15 89/91/15
f 105/115/15 107/117/15 108/118/15 106/116/15
f 164/95/16 166/119/16 110/120/16 93/96/16
f 115/99/15 113/121/15 112/122/15 95/100/15
f 93/96/15 115/99/15 114/102/15 94/97/15
f 93/96/15 111/123/15 113/121/15 115/99/15
f 113/121/15 118/124/15 117/125/15 112/122/15
f 111/123/15 116/126/15 118/124/15 113/121/15
f 97/103/15 119/105/15 120/108/15 98/104/15
f 119/105/15 123/127/15 122/128/15 99/106/15
f 97/103/15 121/129/15 123/127/15 119/105/15
f 101/109/15 124/130/15 125/131/15 102/110/15
f 124/130/15 127/111/15 126/114/15 125/131/15
f 151/132/15 129/133/15 128/134/15 150/135/15
f 124/130/15 132/136/15 130/137/15 127/111/15
f 127/111/15 130/137/15 131/138/15 103/112/15
f 132/136/15 134/139/15 133/140/15 130/137/15
f 130/137/15 133/140/15 135/141/15 131/138/15
f 101/109/15 136/142/15 132/136/15 124/130/15
f 88/90/15 137/143/15 138/144/15 86/88/15
f 138/144/15 140/145/15 139/146/15 86/88/15
f 137/143/15 142/147/15 141/148/15 138/144/15
f 142/147/15 144/149/15 143/150/15 141/148/15
f 143/150/15 147/151/15 146/152/15 141/148/15
f 141/148/15 146/152/15 145/153/15 138/144/15
f 144/149/15 149/154/15 148/155/15 143/150/15
f 159/156/15 151/132/15 150/135/15 158/157/15
f 149/154/15 152/158/15 153/159/15 148/155/15
f 148/155/15 155/160/15 154/161/15 143/150/15
f 158/157/15 160/162/15 157/163/15 153/159/15
f 150/135/15 156/164/15 160/162/15 158/157/15
f 152/158/15 159/156/15 158/157/15 153/159/15
f 1/1/17 3/4/17 83/84/17 81/83/17
f 2/2/18 1/1/18 81/83/18 82/86/18
f 4/3/19 2/2/19 82/86/19 84/85/19
f 3/4/20 5/6/20 85/87/20 83/84/20
f 6/5/21 4/3/21 84/85/21 86/88/21
f 7/8/22 8/7/22 88/90/22 87/89/22
f 10/9/23 7/8/23 87/89/23 90/92/23
f 9/10/24 11/12/24 91/93/24 89/91/24
f 12/11/23 10/9/23 90/92/23 92/94/23
f 162/14/23 12/11/23 92/94/23 165/98/23
f 16/19/23 34/18/23 114/102/23 96/101/23
f 15/20/25 17/22/25 97/103/25 95/100/25
f 18/21/23 16/19/23 96/101/23 98/104/23
f 20/25/23 40/24/23 120/108/23 100/107/23
f 19/26/26 21/28/26 101/109/26 99/106/26
f 22/27/23 20/25/23 100/107/23 102/110/23
f 23/32/27 24/31/27 104/113/27 103/112/27
f 24/31/28 46/30/28 126/114/28 104/113/28
f 5/6/29 25/34/29 105/115/29 85/87/29
f 26/33/30 9/10/30 89/91/30 106/116/30
f 27/36/31 28/35/31 108/118/31 107/117/31
f 25/34/32 27/36/32 107/117/32 105/115/32
f 28/35/33 26/33/33 106/116/33 108/118/33
f 163/38/34 30/37/34 110/120/34 166/119/34
f 11/12/35 29/165/35 109/166/35 91/93/35
f 30/37/36 13/16/36 93/96/36 110/120/36
f 13/16/37 31/41/37 111/123/37 93/96/37
f 32/39/38 15/20/38 95/100/38 112/122/38
f 34/18/23 14/15/23 94/97/23 114/102/23
f 36/44/39 38/43/39 118/124/39 116/126/39
f 38/43/40 37/42/40 117/125/40 118/124/40
f 37/42/41 32/39/41 112/122/41 117/125/41
f 31/41/42 36/44/42 116/126/42 111/123/42
f 40/24/23 18/21/23 98/104/23 120/108/23
f 41/47/43 43/46/43 123/127/43 121/129/43
f 43/46/44 42/45/44 122/128/44 123/127/44
f 42/45/45 19/26/45 99/106/45 122/128/45
f 17/22/46 41/47/46 121/129/46 97/103/46
f 45/48/23 22/27/23 102/110/23 125/131/23
f 46/30/23 45/48/23 125/131/23 126/114/23
f 49/53/47 48/52/47 128/134/47 129/133/47
f 8/7/23 57/62/23 137/143/23 88/90/23
f 48/52/48 70/51/48 150/135/48 128/134/48
f 51/56/49 23/32/49 103/112/49 131/138/49
f 52/55/50 54/58/50 134/139/50 132/136/50
f 55/59/51 51/56/51 131/138/51 135/141/51
f 53/57/52 55/59/52 135/141/52 133/140/52
f 54/58/53 53/57/53 133/140/53 134/139/53
f 56/60/54 52/55/54 132/136/54 136/142/54
f 21/28/55 56/60/55 136/142/55 101/109/55
f 57/62/23 62/66/23 142/147/23 137/143/23
f 60/64/56 59/63/56 139/146/56 140/145/56
f 58/61/57 60/64/57 140/145/57 138/144/57
f 59/63/58 6/5/58 86/88/58 139/146/58
f 62/66/23 64/68/23 144/149/23 142/147/23
f 64/68/23 69/73/23 149/154/23 144/149/23
f 66/69/59 65/71/59 145/153/59 146/152/59
f 67/70/60 66/69/60 146/152/60 147/151/60
f 63/67/61 67/70/61 147/151/61 143/150/61
f 65/71/62 58/61/62 138/144/62 145/153/62
f 69/73/23 72/77/23 152/158/23 149/154/23
f 71/50/63 49/53/63 129/133/63 151/132/63
f 72/77/23 79/74/23 159/156/23 152/158/23
f 73/76/64 68/72/64 148/155/64 153/159/64
f 75/79/65 74/78/65 154/161/65 155/160/65
f 68/72/66 75/79/66 155/160/66 148/155/66
f 74/78/67 63/67/67 143/150/67 154/161/67
f 76/82/68 80/81/68 160/162/68 156/164/68
f 70/51/69 76/82/69 156/164/69 150/135/69
f 77/80/70 73/76/70 153/159/70 157/163/70
f 79/74/23 71/50/23 151/132/23 159/156/23
f 80/81/71 77/80/71 157/163/71 160/162/71
f 29/165/72 163/38/72 166/119/72 109/166/72
f 14/15/23 162/14/23 165/98/23 94/97/23
f 91/93/73 109/166/73 166/119/73 164/95/73
f 91/93/15 164/95/15 165/98/15 92/94/15
f 11/12/74 161/13/74 163/38/74 29/165/74
f 11/12/75 12/11/75 162/14/75 161/13/75
