# Blender v2.80 (sub 75) OBJ File: 'Объекты.blend'
# www.blender.org
mtllib Object1.mtl
o Скала.009_Plane.016
v 7.143353 0.020914 -5.195323
v 7.046767 0.020914 -5.028568
v 7.339565 0.020914 -5.136434
v 6.998016 -0.012172 -4.907015
v 7.180333 0.000000 -4.623776
v 6.903028 0.000000 -4.902535
v 7.181859 0.000000 -4.542625
v 6.910659 0.000000 -4.544152
v 7.591367 0.010789 -4.808610
v 7.467591 0.000000 -4.542625
v 7.625270 -0.022965 -4.813571
v 7.566499 0.000000 -4.542625
v 8.014618 0.000000 -4.760724
v 8.026235 0.000000 -4.542625
v 8.505788 0.000000 -4.692886
v 8.462160 0.000000 -4.542625
v 8.604568 0.000000 -4.697804
v 8.561068 0.000000 -4.542625
v 9.033404 0.000000 -4.761784
v 9.004319 0.000000 -4.542625
v 9.082052 0.000000 -4.754144
v 9.090405 0.000000 -4.542625
v 9.549810 0.000000 -4.724286
v 9.718651 0.000000 -4.549469
v 7.275477 -0.019482 -4.871216
v 7.624897 0.000382 -4.929343
v 7.378500 -0.019790 -5.004361
v 7.512718 0.000000 -5.055679
v 7.665550 0.035372 -4.909019
v 7.917953 0.035372 -4.870152
v 8.120657 0.000000 -4.878889
v 8.529743 0.000000 -4.837041
v 8.309555 0.000000 -4.732422
v 8.244198 0.000000 -4.542625
v 8.245321 0.000000 -4.595157
v 8.115002 0.000000 -5.041533
v 8.435598 0.000000 -5.062178
v 8.293977 0.000000 -5.024279
v 8.781167 0.000000 -4.623776
v 8.782694 0.000000 -4.542625
v 8.644347 0.000000 -4.928792
v 8.895370 0.000000 -4.923606
v 8.743670 0.000000 -4.977959
v 9.278250 0.000000 -4.623776
v 9.279777 0.000000 -4.542625
v 9.427780 0.000000 -4.542625
v 9.426254 0.000000 -4.623776
v 5.254968 0.000000 -4.807732
v 5.167966 0.000000 -4.694242
v 9.478912 0.000000 -4.837465
v 9.569373 0.000000 -4.756721
v 9.189328 0.000000 -4.914096
v 9.373463 0.000000 -4.988414
v 9.217926 0.000000 -5.001074
v 9.480853 0.000000 -4.990560
v 9.136372 0.000000 -4.810860
v 6.572792 0.000000 -4.544152
v 6.571265 0.000000 -4.626575
v 6.719209 0.000000 -5.030672
v 6.622652 0.000000 -4.874097
v 6.392867 0.000000 -4.626575
v 6.394393 0.000000 -4.544152
v 6.184236 0.000000 -4.848242
v 6.196421 0.000000 -4.544152
v 6.590176 0.000000 -4.884972
v 6.382183 0.000000 -4.892614
v 6.221774 0.000000 -4.906750
v 5.857253 -0.051738 -4.889568
v 5.858685 0.000000 -4.544152
v 5.420727 0.000000 -4.831614
v 5.515869 0.000000 -4.544152
v 5.755840 0.000000 -4.544152
v 5.757366 0.000000 -4.754788
v 6.014600 -0.049967 -5.107986
v 5.924466 -0.030090 -5.080832
v 5.458155 0.000000 -5.031863
v 5.791088 0.000000 -5.099844
v 5.638144 0.000000 -4.691444
v 5.635854 0.000000 -4.544152
v 5.579599 0.000000 -5.139360
v 7.126420 0.180575 -5.070040
v 7.032743 0.180575 -4.896237
v 7.325051 0.180575 -5.024427
v 6.992729 0.201489 -4.776713
v 7.180333 0.201489 -4.623776
v 6.909133 0.201489 -4.626575
v 7.181859 0.201489 -4.542625
v 6.910659 0.201489 -4.544152
v 7.468185 0.201489 -4.595157
v 7.467591 0.201489 -4.542625
v 7.566032 0.201489 -4.597277
v 7.566499 0.201489 -4.542625
v 8.026829 0.201489 -4.600457
v 8.026235 0.201489 -4.542625
v 8.463814 0.201489 -4.589858
v 8.462160 0.201489 -4.542625
v 8.562593 0.201489 -4.594776
v 8.561068 0.201489 -4.542625
v 9.005845 0.201489 -4.593249
v 9.004319 0.201489 -4.542625
v 9.087353 0.201489 -4.662128
v 9.090405 0.201489 -4.542625
v 9.499161 0.201483 -4.638429
v 9.575784 0.201489 -4.546288
v 7.328973 0.201489 -4.776487
v 7.588207 0.201489 -4.829978
v 7.419960 0.201489 -4.854493
v 7.495759 0.201489 -4.865945
v 7.677435 0.166117 -4.774319
v 7.905077 0.166117 -4.734461
v 8.131341 0.201489 -4.730833
v 8.487769 0.201489 -4.734013
v 8.309555 0.201489 -4.732422
v 8.244198 0.201489 -4.542625
v 8.245321 0.201489 -4.595157
v 8.110538 0.201489 -4.817160
v 8.500922 0.201489 -4.873853
v 8.312608 0.201483 -4.787994
v 8.781167 0.201489 -4.623776
v 8.782694 0.201489 -4.542625
v 8.621451 0.201483 -4.797780
v 8.867175 0.201489 -4.788119
v 8.724591 0.201489 -4.832956
v 9.278250 0.201489 -4.623776
v 9.279777 0.201489 -4.542625
v 9.427780 0.201489 -4.542625
v 9.426254 0.201489 -4.623776
v 5.251611 0.201489 -4.616938
v 5.173054 0.201489 -4.544152
v 9.423061 0.201489 -4.775735
v 9.569373 0.201489 -4.756721
v 9.192274 0.201489 -4.823999
v 9.358200 0.201489 -4.886908
v 9.224591 0.201489 -4.876252
v 9.469406 0.201489 -4.804854
v 9.153277 0.201483 -4.703416
v 6.572792 0.201489 -4.544152
v 6.571265 0.201489 -4.626575
v 6.693261 0.201489 -4.851953
v 6.592125 0.201483 -4.706199
v 6.392867 0.201489 -4.626575
v 6.394393 0.201489 -4.544152
v 6.204052 0.201489 -4.696786
v 6.196421 0.201489 -4.544152
v 6.565807 0.201489 -4.739968
v 6.391341 0.201489 -4.779374
v 6.246143 0.201489 -4.822169
v 5.923704 0.201489 -4.723041
v 5.858685 0.201489 -4.544152
v 5.517395 0.201489 -4.582310
v 5.515869 0.201489 -4.544152
v 5.755840 0.201489 -4.544152
v 5.757366 0.201489 -4.754788
v 6.071260 0.201489 -4.933201
v 5.984423 0.201489 -4.945616
v 5.453067 0.201489 -4.843613
v 5.769464 0.201489 -5.011923
v 5.638144 0.201489 -4.691444
v 5.635854 0.201489 -4.544152
v 5.586248 0.201489 -5.022471
v 7.819943 -0.011482 -4.845836
v 7.796367 0.000000 -4.542625
v 7.794403 0.035372 -4.876259
v 7.796431 0.201489 -4.598867
v 7.796367 0.201489 -4.542625
v 7.793908 0.166117 -4.741064
v 5.348053 0.000000 -4.892344
v 5.341918 0.000000 -4.619197
v 5.384911 0.201489 -4.733535
v 5.344461 0.201489 -4.544152
vt 0.466597 0.637958
vt 0.487997 0.545169
vt 0.408021 0.477486
vt 0.415595 0.560166
vt 0.453273 0.335765
vt 0.397438 0.435548
vt 0.453580 0.312596
vt 0.398975 0.313143
vt 0.536034 0.401927
vt 0.511112 0.312596
vt 0.540892 0.442802
vt 0.531027 0.312596
vt 0.579925 0.413211
vt 0.618959 0.383619
vt 0.623595 0.312596
vt 0.577311 0.312596
vt 0.667707 0.325521
vt 0.717199 0.359337
vt 0.711411 0.313371
vt 0.667525 0.313371
vt 0.740041 0.362264
vt 0.731326 0.313371
vt 0.772974 0.335765
vt 0.821793 0.385165
vt 0.820575 0.313371
vt 0.775950 0.313371
vt 0.836182 0.383435
vt 0.837908 0.313371
vt 0.905487 0.335765
vt 0.917897 0.370577
vt 0.948983 0.314654
vt 0.905838 0.313371
vt 0.472430 0.424337
vt 0.540817 0.442227
vt 0.486071 0.484435
vt 0.525866 0.518260
vt 0.573261 0.460736
vt 0.599959 0.459798
vt 0.677360 0.370573
vt 0.718413 0.405688
vt 0.642606 0.427084
vt 0.674901 0.594034
vt 0.728896 0.487443
vt 0.605112 0.506306
vt 0.781733 0.462521
vt 0.823766 0.421529
vt 0.742653 0.444947
vt 0.875686 0.335765
vt 0.876037 0.313371
vt 0.084412 0.337066
vt 0.050689 0.360989
vt 0.068728 0.441410
vt 0.083853 0.425786
vt 0.866458 0.425657
vt 0.916090 0.412256
vt 0.923476 0.381020
vt 0.861148 0.467650
vt 0.927469 0.554795
vt 0.943856 0.491004
vt 0.836152 0.383162
vt 0.330945 0.313143
vt 0.330638 0.336767
vt 0.336024 0.420959
vt 0.381098 0.475695
vt 0.295025 0.313143
vt 0.294718 0.336767
vt 0.255163 0.313143
vt 0.239204 0.383017
vt 0.240740 0.433829
vt 0.292566 0.452049
vt 0.343502 0.483700
vt 0.187161 0.313143
vt 0.176171 0.441345
vt 0.142294 0.313143
vt 0.118135 0.313143
vt 0.098978 0.410161
vt 0.142755 0.359987
vt 0.166453 0.313143
vt 0.166760 0.382661
vt 0.191467 0.529484
vt 0.218554 0.591307
vt 0.129736 0.554293
vt 0.176381 0.517946
vt 0.096213 0.493404
vt 0.463278 0.566169
vt 0.420205 0.492316
vt 0.408809 0.437844
vt 0.485293 0.496905
vt 0.398667 0.336767
vt 0.453273 0.335765
vt 0.398975 0.313143
vt 0.453580 0.312596
vt 0.511112 0.312596
vt 0.511232 0.325521
vt 0.531027 0.312596
vt 0.530933 0.326280
vt 0.577324 0.326849
vt 0.577311 0.312596
vt 0.623595 0.312596
vt 0.623714 0.327418
vt 0.667707 0.325521
vt 0.667525 0.313371
vt 0.711411 0.313371
vt 0.711700 0.323624
vt 0.731326 0.313371
vt 0.731590 0.325384
vt 0.775599 0.335765
vt 0.775950 0.313371
vt 0.820575 0.313371
vt 0.820838 0.324838
vt 0.837908 0.313371
vt 0.837249 0.325384
vt 0.905487 0.335765
vt 0.905838 0.313371
vt 0.935638 0.314682
vt 0.920167 0.341010
vt 0.535398 0.409576
vt 0.483202 0.404643
vt 0.524420 0.453260
vt 0.494419 0.429736
vt 0.598260 0.386113
vt 0.575240 0.388199
vt 0.713571 0.374058
vt 0.680641 0.374656
vt 0.644757 0.374086
vt 0.719061 0.426250
vt 0.681255 0.482835
vt 0.630621 0.425991
vt 0.818088 0.371825
vt 0.780517 0.410617
vt 0.738044 0.398051
vt 0.876037 0.313371
vt 0.875686 0.335765
vt 0.084924 0.313143
vt 0.104619 0.348407
vt 0.088192 0.373114
vt 0.051714 0.313143
vt 0.916090 0.412256
vt 0.876915 0.393406
vt 0.923476 0.381020
vt 0.926692 0.488747
vt 0.874457 0.424822
vt 0.941550 0.424530
vt 0.842128 0.358500
vt 0.330638 0.336767
vt 0.330945 0.313143
vt 0.375874 0.418721
vt 0.329877 0.360859
vt 0.294718 0.336767
vt 0.295025 0.313143
vt 0.256700 0.361900
vt 0.255163 0.313143
vt 0.294410 0.409980
vt 0.245158 0.384026
vt 0.336741 0.431795
vt 0.187468 0.382661
vt 0.187161 0.313143
vt 0.142294 0.313143
vt 0.142755 0.359987
vt 0.121047 0.323700
vt 0.118135 0.313143
vt 0.166760 0.382661
vt 0.166453 0.313143
vt 0.222108 0.481279
vt 0.203142 0.504500
vt 0.177756 0.453309
vt 0.132306 0.491661
vt 0.094668 0.438983
vt 0.552219 0.390286
vt 0.546563 0.461675
vn -0.0513 -0.9889 -0.1394
vn 0.0527 -0.9986 0.0090
vn 0.0000 -1.0000 0.0000
vn 0.0080 -0.9996 -0.0283
vn -0.2480 -0.9667 -0.0624
vn 0.0225 -0.9995 0.0225
vn 0.0739 -0.9916 0.1063
vn 0.0817 -0.9967 -0.0002
vn 0.2059 -0.7543 -0.6234
vn 0.0726 -0.9943 0.0777
vn -0.1891 -0.9777 0.0909
vn 0.0745 -0.9962 0.0456
vn -0.0389 0.9953 -0.0887
vn 0.0231 0.9993 -0.0284
vn 0.0000 1.0000 0.0000
vn 0.0037 0.9683 -0.2497
vn 0.2053 0.5967 -0.7758
vn -0.8341 0.2951 -0.4660
vn -0.9252 0.1852 -0.3313
vn 0.9471 -0.0597 0.3152
vn -0.4956 0.6080 -0.6203
vn -0.0056 0.0000 1.0000
vn 0.0000 0.0000 1.0000
vn 0.1552 0.7426 -0.6515
vn -0.0445 0.4475 -0.8932
vn -0.3712 0.4896 -0.7890
vn 0.6576 0.4494 -0.6047
vn 0.0239 0.0006 0.9997
vn -0.8282 0.2204 -0.5153
vn 0.9171 0.0594 0.3943
vn -0.2790 0.6112 -0.7407
vn -0.6496 0.4700 -0.5976
vn 0.5214 0.5425 -0.6587
vn 0.0375 0.7199 -0.6931
vn -0.8383 0.3225 -0.4395
vn 0.6393 0.5122 -0.5736
vn -0.6720 0.4737 -0.5693
vn 0.9793 0.1208 0.1627
vn 0.0801 0.7490 -0.6577
vn -0.2410 0.7273 -0.6426
vn 0.9714 0.0996 -0.2156
vn -0.9910 -0.0820 0.1053
vn -0.3309 0.5096 -0.7943
vn 0.2620 0.5718 -0.7774
vn 0.6859 0.4963 -0.5321
vn -0.9747 -0.0283 -0.2215
vn -0.6507 0.4920 -0.5783
vn 0.6512 0.4226 -0.6303
vn 0.8592 -0.0010 0.5117
vn -0.8917 0.2293 -0.3901
vn 0.8006 0.2694 -0.5352
vn 0.2823 0.5691 -0.7723
vn 0.0060 0.4898 -0.8718
vn -0.9011 0.2259 -0.3702
vn -0.5828 0.3861 -0.7151
vn -0.7891 0.3332 -0.5160
vn -0.9763 0.0159 -0.2156
vn 0.4979 0.6597 -0.5629
vn 0.1028 0.5394 -0.8357
vn 0.1659 0.4234 -0.8906
vn -0.8706 0.3163 -0.3770
vn 0.9982 0.0474 0.0361
vn -0.1867 -0.4765 0.8591
vn -0.2732 0.3658 -0.8897
vn -0.0092 0.5417 -0.8405
vn -0.8858 0.3887 -0.2535
vn 0.8184 0.2384 -0.5229
vn -0.6668 0.4515 -0.5929
vn -0.9852 0.1616 0.0574
vn 0.9964 0.0369 0.0758
vn 0.1121 0.4535 -0.8842
vn 0.1851 0.7019 -0.6878
vn 0.0192 0.9775 -0.2101
vn 0.0283 -0.7686 -0.6391
vn 0.0319 -0.9974 0.0644
vn -0.2090 -0.1778 0.9616
vn -0.5433 0.5755 -0.6113
usemtl Скала_норм.002
s off
f 1/1/1 3/2/1 4/3/1 2/4/1
f 3/2/2 5/5/2 6/6/2 4/3/2
f 5/5/3 7/7/3 8/8/3 6/6/3
f 5/5/4 9/9/4 10/10/4 7/7/4
f 9/9/5 11/11/5 12/12/5 10/10/5
f 161/13/6 13/14/6 14/15/6 162/16/6
f 35/17/3 15/18/3 16/19/3 34/20/3
f 15/18/3 17/21/3 18/22/3 16/19/3
f 39/23/3 19/24/3 20/25/3 40/26/3
f 19/24/3 21/27/3 22/28/3 20/25/3
f 47/29/3 23/30/3 24/31/3 46/32/3
f 5/5/7 25/33/7 26/34/7 9/9/7
f 25/33/8 27/35/8 28/36/8 26/34/8
f 161/13/9 163/37/9 30/38/9 13/14/9
f 35/17/3 33/39/3 32/40/3 15/18/3
f 13/14/3 35/17/3 34/20/3 14/15/3
f 13/14/3 31/41/3 33/39/3 35/17/3
f 33/39/3 38/42/3 37/43/3 32/40/3
f 31/41/3 36/44/3 38/42/3 33/39/3
f 17/21/3 39/23/3 40/26/3 18/22/3
f 39/23/3 43/45/3 42/46/3 19/24/3
f 17/21/3 41/47/3 43/45/3 39/23/3
f 21/27/3 44/48/3 45/49/3 22/28/3
f 44/48/3 47/29/3 46/32/3 45/49/3
f 168/50/3 49/51/3 48/52/3 167/53/3
f 44/48/3 52/54/3 50/55/3 47/29/3
f 47/29/3 50/55/3 51/56/3 23/30/3
f 52/54/3 54/57/3 53/58/3 50/55/3
f 50/55/3 53/58/3 55/59/3 51/56/3
f 21/27/3 56/60/3 52/54/3 44/48/3
f 8/8/3 57/61/3 58/62/3 6/6/3
f 58/62/3 60/63/3 59/64/3 6/6/3
f 57/61/3 62/65/3 61/66/3 58/62/3
f 62/65/3 64/67/3 63/68/3 61/66/3
f 63/68/3 67/69/3 66/70/3 61/66/3
f 61/66/3 66/70/3 65/71/3 58/62/3
f 64/67/10 69/72/10 68/73/10 63/68/10
f 79/74/3 71/75/3 70/76/3 78/77/3
f 69/72/11 72/78/11 73/79/11 68/73/11
f 68/73/12 75/80/12 74/81/12 63/68/12
f 78/77/3 80/82/3 77/83/3 73/79/3
f 70/76/3 76/84/3 80/82/3 78/77/3
f 72/78/3 79/74/3 78/77/3 73/79/3
f 81/85/13 82/86/13 84/87/13 83/88/13
f 83/88/14 84/87/14 86/89/14 85/90/14
f 85/90/15 86/89/15 88/91/15 87/92/15
f 85/90/15 87/92/15 90/93/15 89/94/15
f 89/94/15 90/93/15 92/95/15 91/96/15
f 164/97/15 165/98/15 94/99/15 93/100/15
f 115/101/15 114/102/15 96/103/15 95/104/15
f 95/104/15 96/103/15 98/105/15 97/106/15
f 119/107/15 120/108/15 100/109/15 99/110/15
f 99/110/15 100/109/15 102/111/15 101/112/15
f 127/113/15 126/114/15 104/115/15 103/116/15
f 85/90/15 89/94/15 106/117/15 105/118/15
f 105/118/15 106/117/15 108/119/15 107/120/15
f 164/97/16 93/100/16 110/121/16 166/122/16
f 115/101/15 95/104/15 112/123/15 113/124/15
f 93/100/15 94/99/15 114/102/15 115/101/15
f 93/100/15 115/101/15 113/124/15 111/125/15
f 113/124/15 112/123/15 117/126/15 118/127/15
f 111/125/15 113/124/15 118/127/15 116/128/15
f 97/106/15 98/105/15 120/108/15 119/107/15
f 119/107/15 99/110/15 122/129/15 123/130/15
f 97/106/15 119/107/15 123/130/15 121/131/15
f 101/112/15 102/111/15 125/132/15 124/133/15
f 124/133/15 125/132/15 126/114/15 127/113/15
f 170/134/15 169/135/15 128/136/15 129/137/15
f 124/133/15 127/113/15 130/138/15 132/139/15
f 127/113/15 103/116/15 131/140/15 130/138/15
f 132/139/15 130/138/15 133/141/15 134/142/15
f 130/138/15 131/140/15 135/143/15 133/141/15
f 101/112/15 124/133/15 132/139/15 136/144/15
f 88/91/15 86/89/15 138/145/15 137/146/15
f 138/145/15 86/89/15 139/147/15 140/148/15
f 137/146/15 138/145/15 141/149/15 142/150/15
f 142/150/15 141/149/15 143/151/15 144/152/15
f 143/151/15 141/149/15 146/153/15 147/154/15
f 141/149/15 138/145/15 145/155/15 146/153/15
f 144/152/15 143/151/15 148/156/15 149/157/15
f 159/158/15 158/159/15 150/160/15 151/161/15
f 149/157/15 148/156/15 153/162/15 152/163/15
f 148/156/15 143/151/15 154/164/15 155/165/15
f 158/159/15 153/162/15 157/166/15 160/167/15
f 150/160/15 158/159/15 160/167/15 156/168/15
f 152/163/15 153/162/15 158/159/15 159/158/15
f 1/1/17 81/85/17 83/88/17 3/2/17
f 2/4/18 82/86/18 81/85/18 1/1/18
f 4/3/19 84/87/19 82/86/19 2/4/19
f 3/2/20 83/88/20 85/90/20 5/5/20
f 6/6/21 86/89/21 84/87/21 4/3/21
f 7/7/22 87/92/22 88/91/22 8/8/22
f 10/10/23 90/93/23 87/92/23 7/7/23
f 9/9/24 89/94/24 91/96/24 11/11/24
f 12/12/23 92/95/23 90/93/23 10/10/23
f 162/16/23 165/98/23 92/95/23 12/12/23
f 16/19/23 96/103/23 114/102/23 34/20/23
f 15/18/25 95/104/25 97/106/25 17/21/25
f 18/22/23 98/105/23 96/103/23 16/19/23
f 20/25/23 100/109/23 120/108/23 40/26/23
f 19/24/26 99/110/26 101/112/26 21/27/26
f 22/28/23 102/111/23 100/109/23 20/25/23
f 23/30/27 103/116/27 104/115/27 24/31/27
f 24/31/28 104/115/28 126/114/28 46/32/28
f 5/5/29 85/90/29 105/118/29 25/33/29
f 26/34/30 106/117/30 89/94/30 9/9/30
f 27/35/31 107/120/31 108/119/31 28/36/31
f 25/33/32 105/118/32 107/120/32 27/35/32
f 28/36/33 108/119/33 106/117/33 26/34/33
f 163/37/34 166/122/34 110/121/34 30/38/34
f 11/11/35 91/96/35 109/169/35 29/170/35
f 30/38/36 110/121/36 93/100/36 13/14/36
f 13/14/37 93/100/37 111/125/37 31/41/37
f 32/40/38 112/123/38 95/104/38 15/18/38
f 34/20/23 114/102/23 94/99/23 14/15/23
f 36/44/39 116/128/39 118/127/39 38/42/39
f 38/42/40 118/127/40 117/126/40 37/43/40
f 37/43/41 117/126/41 112/123/41 32/40/41
f 31/41/42 111/125/42 116/128/42 36/44/42
f 40/26/23 120/108/23 98/105/23 18/22/23
f 41/47/43 121/131/43 123/130/43 43/45/43
f 43/45/44 123/130/44 122/129/44 42/46/44
f 42/46/45 122/129/45 99/110/45 19/24/45
f 17/21/46 97/106/46 121/131/46 41/47/46
f 45/49/23 125/132/23 102/111/23 22/28/23
f 46/32/23 126/114/23 125/132/23 45/49/23
f 49/51/47 129/137/47 128/136/47 48/52/47
f 8/8/23 88/91/23 137/146/23 57/61/23
f 167/53/48 169/135/48 150/160/48 70/76/48
f 51/56/49 131/140/49 103/116/49 23/30/49
f 52/54/50 132/139/50 134/142/50 54/57/50
f 55/59/51 135/143/51 131/140/51 51/56/51
f 53/58/52 133/141/52 135/143/52 55/59/52
f 54/57/53 134/142/53 133/141/53 53/58/53
f 56/60/54 136/144/54 132/139/54 52/54/54
f 21/27/55 101/112/55 136/144/55 56/60/55
f 57/61/23 137/146/23 142/150/23 62/65/23
f 60/63/56 140/148/56 139/147/56 59/64/56
f 58/62/57 138/145/57 140/148/57 60/63/57
f 59/64/58 139/147/58 86/89/58 6/6/58
f 62/65/23 142/150/23 144/152/23 64/67/23
f 64/67/23 144/152/23 149/157/23 69/72/23
f 66/70/59 146/153/59 145/155/59 65/71/59
f 67/69/60 147/154/60 146/153/60 66/70/60
f 63/68/61 143/151/61 147/154/61 67/69/61
f 65/71/62 145/155/62 138/145/62 58/62/62
f 69/72/23 149/157/23 152/163/23 72/78/23
f 168/50/63 170/134/63 129/137/63 49/51/63
f 72/78/23 152/163/23 159/158/23 79/74/23
f 73/79/64 153/162/64 148/156/64 68/73/64
f 75/80/65 155/165/65 154/164/65 74/81/65
f 68/73/66 148/156/66 155/165/66 75/80/66
f 74/81/67 154/164/67 143/151/67 63/68/67
f 76/84/68 156/168/68 160/167/68 80/82/68
f 70/76/69 150/160/69 156/168/69 76/84/69
f 77/83/70 157/166/70 153/162/70 73/79/70
f 79/74/23 159/158/23 151/161/23 71/75/23
f 80/82/71 160/167/71 157/166/71 77/83/71
f 29/170/72 109/169/72 166/122/72 163/37/72
f 14/15/23 94/99/23 165/98/23 162/16/23
f 91/96/73 164/97/73 166/122/73 109/169/73
f 91/96/15 92/95/15 165/98/15 164/97/15
f 11/11/74 29/170/74 163/37/74 161/13/74
f 11/11/75 161/13/75 162/16/75 12/12/75
f 71/75/76 151/161/76 170/134/76 168/50/76
f 48/52/77 128/136/77 169/135/77 167/53/77
f 151/161/15 150/160/15 169/135/15 170/134/15
f 71/75/3 168/50/3 167/53/3 70/76/3
